<?xml version="1.0" encoding="utf-8" standalone="no"?>
<!DOCTYPE svg PUBLIC "-//W3C//DTD SVG 1.1//EN"
  "http://www.w3.org/Graphics/SVG/1.1/DTD/svg11.dtd">
<svg height="371.589375pt" version="1.1" viewBox="0 0 391.564375 371.589375" width="391.564375pt" xmlns="http://www.w3.org/2000/svg" xmlns:xlink="http://www.w3.org/1999/xlink">
 <metadata>
  <rdf:RDF xmlns:cc="http://creativecommons.org/ns#" xmlns:dc="http://purl.org/dc/elements/1.1/" xmlns:rdf="http://www.w3.org/1999/02/22-rdf-syntax-ns#">
   <cc:Work>
    <dc:type rdf:resource="http://purl.org/dc/dcmitype/StillImage"/>
    <dc:date>2024-01-09T21:09:19.929838</dc:date>
    <dc:format>image/svg+xml</dc:format>
    <dc:creator>
     <cc:Agent>
      <dc:title>Matplotlib v3.4.3, https://matplotlib.org/</dc:title>
     </cc:Agent>
    </dc:creator>
   </cc:Work>
  </rdf:RDF>
 </metadata>
 <defs>
  <style type="text/css">*{stroke-linecap:butt;stroke-linejoin:round;}</style>
 </defs>
 <g id="figure_1">
  <g id="patch_1">
   <path d="M 0 371.589375 
L 391.564375 371.589375 
L 391.564375 0 
L 0 0 
z
" style="fill:#ffffff;"/>
  </g>
  <g id="axes_1">
   <g id="patch_2">
    <path d="M 49.564375 339.84 
L 384.364375 339.84 
L 384.364375 7.2 
L 49.564375 7.2 
z
" style="fill:#ffffff;"/>
   </g>
   <g id="matplotlib.axis_1">
    <g id="xtick_1">
     <g id="line2d_1">
      <defs>
       <path d="M 0 0 
L 0 3.5 
" id="m122f27d50a" style="stroke:#000000;stroke-width:0.8;"/>
      </defs>
      <g>
       <use style="stroke:#000000;stroke-width:0.8;" x="216.964375" xlink:href="#m122f27d50a" y="339.84"/>
      </g>
     </g>
    </g>
    <g id="text_1">
     <!-- MHC-Bench -->
     <g transform="translate(176.669531 361.477813)scale(0.14 -0.14)">
      <defs>
       <path d="M 628 4666 
L 1569 4666 
L 2759 1491 
L 3956 4666 
L 4897 4666 
L 4897 0 
L 4281 0 
L 4281 4097 
L 3078 897 
L 2444 897 
L 1241 4097 
L 1241 0 
L 628 0 
L 628 4666 
z
" id="DejaVuSans-4d" transform="scale(0.015625)"/>
       <path d="M 628 4666 
L 1259 4666 
L 1259 2753 
L 3553 2753 
L 3553 4666 
L 4184 4666 
L 4184 0 
L 3553 0 
L 3553 2222 
L 1259 2222 
L 1259 0 
L 628 0 
L 628 4666 
z
" id="DejaVuSans-48" transform="scale(0.015625)"/>
       <path d="M 4122 4306 
L 4122 3641 
Q 3803 3938 3442 4084 
Q 3081 4231 2675 4231 
Q 1875 4231 1450 3742 
Q 1025 3253 1025 2328 
Q 1025 1406 1450 917 
Q 1875 428 2675 428 
Q 3081 428 3442 575 
Q 3803 722 4122 1019 
L 4122 359 
Q 3791 134 3420 21 
Q 3050 -91 2638 -91 
Q 1578 -91 968 557 
Q 359 1206 359 2328 
Q 359 3453 968 4101 
Q 1578 4750 2638 4750 
Q 3056 4750 3426 4639 
Q 3797 4528 4122 4306 
z
" id="DejaVuSans-43" transform="scale(0.015625)"/>
       <path d="M 313 2009 
L 1997 2009 
L 1997 1497 
L 313 1497 
L 313 2009 
z
" id="DejaVuSans-2d" transform="scale(0.015625)"/>
       <path d="M 1259 2228 
L 1259 519 
L 2272 519 
Q 2781 519 3026 730 
Q 3272 941 3272 1375 
Q 3272 1813 3026 2020 
Q 2781 2228 2272 2228 
L 1259 2228 
z
M 1259 4147 
L 1259 2741 
L 2194 2741 
Q 2656 2741 2882 2914 
Q 3109 3088 3109 3444 
Q 3109 3797 2882 3972 
Q 2656 4147 2194 4147 
L 1259 4147 
z
M 628 4666 
L 2241 4666 
Q 2963 4666 3353 4366 
Q 3744 4066 3744 3513 
Q 3744 3084 3544 2831 
Q 3344 2578 2956 2516 
Q 3422 2416 3680 2098 
Q 3938 1781 3938 1306 
Q 3938 681 3513 340 
Q 3088 0 2303 0 
L 628 0 
L 628 4666 
z
" id="DejaVuSans-42" transform="scale(0.015625)"/>
       <path d="M 3597 1894 
L 3597 1613 
L 953 1613 
Q 991 1019 1311 708 
Q 1631 397 2203 397 
Q 2534 397 2845 478 
Q 3156 559 3463 722 
L 3463 178 
Q 3153 47 2828 -22 
Q 2503 -91 2169 -91 
Q 1331 -91 842 396 
Q 353 884 353 1716 
Q 353 2575 817 3079 
Q 1281 3584 2069 3584 
Q 2775 3584 3186 3129 
Q 3597 2675 3597 1894 
z
M 3022 2063 
Q 3016 2534 2758 2815 
Q 2500 3097 2075 3097 
Q 1594 3097 1305 2825 
Q 1016 2553 972 2059 
L 3022 2063 
z
" id="DejaVuSans-65" transform="scale(0.015625)"/>
       <path d="M 3513 2113 
L 3513 0 
L 2938 0 
L 2938 2094 
Q 2938 2591 2744 2837 
Q 2550 3084 2163 3084 
Q 1697 3084 1428 2787 
Q 1159 2491 1159 1978 
L 1159 0 
L 581 0 
L 581 3500 
L 1159 3500 
L 1159 2956 
Q 1366 3272 1645 3428 
Q 1925 3584 2291 3584 
Q 2894 3584 3203 3211 
Q 3513 2838 3513 2113 
z
" id="DejaVuSans-6e" transform="scale(0.015625)"/>
       <path d="M 3122 3366 
L 3122 2828 
Q 2878 2963 2633 3030 
Q 2388 3097 2138 3097 
Q 1578 3097 1268 2742 
Q 959 2388 959 1747 
Q 959 1106 1268 751 
Q 1578 397 2138 397 
Q 2388 397 2633 464 
Q 2878 531 3122 666 
L 3122 134 
Q 2881 22 2623 -34 
Q 2366 -91 2075 -91 
Q 1284 -91 818 406 
Q 353 903 353 1747 
Q 353 2603 823 3093 
Q 1294 3584 2113 3584 
Q 2378 3584 2631 3529 
Q 2884 3475 3122 3366 
z
" id="DejaVuSans-63" transform="scale(0.015625)"/>
       <path d="M 3513 2113 
L 3513 0 
L 2938 0 
L 2938 2094 
Q 2938 2591 2744 2837 
Q 2550 3084 2163 3084 
Q 1697 3084 1428 2787 
Q 1159 2491 1159 1978 
L 1159 0 
L 581 0 
L 581 4863 
L 1159 4863 
L 1159 2956 
Q 1366 3272 1645 3428 
Q 1925 3584 2291 3584 
Q 2894 3584 3203 3211 
Q 3513 2838 3513 2113 
z
" id="DejaVuSans-68" transform="scale(0.015625)"/>
      </defs>
      <use xlink:href="#DejaVuSans-4d"/>
      <use x="86.279297" xlink:href="#DejaVuSans-48"/>
      <use x="161.474609" xlink:href="#DejaVuSans-43"/>
      <use x="231.298828" xlink:href="#DejaVuSans-2d"/>
      <use x="263.757812" xlink:href="#DejaVuSans-42"/>
      <use x="332.361328" xlink:href="#DejaVuSans-65"/>
      <use x="393.884766" xlink:href="#DejaVuSans-6e"/>
      <use x="457.263672" xlink:href="#DejaVuSans-63"/>
      <use x="512.244141" xlink:href="#DejaVuSans-68"/>
     </g>
    </g>
   </g>
   <g id="matplotlib.axis_2">
    <g id="ytick_1">
     <g id="line2d_2">
      <defs>
       <path d="M 0 0 
L -3.5 0 
" id="ma9f0ee0ec3" style="stroke:#000000;stroke-width:0.8;"/>
      </defs>
      <g>
       <use style="stroke:#000000;stroke-width:0.8;" x="49.564375" xlink:href="#ma9f0ee0ec3" y="327.0825"/>
      </g>
     </g>
     <g id="text_2">
      <!-- 0 -->
      <g transform="translate(33.656875 332.401406)scale(0.14 -0.14)">
       <defs>
        <path d="M 2034 4250 
Q 1547 4250 1301 3770 
Q 1056 3291 1056 2328 
Q 1056 1369 1301 889 
Q 1547 409 2034 409 
Q 2525 409 2770 889 
Q 3016 1369 3016 2328 
Q 3016 3291 2770 3770 
Q 2525 4250 2034 4250 
z
M 2034 4750 
Q 2819 4750 3233 4129 
Q 3647 3509 3647 2328 
Q 3647 1150 3233 529 
Q 2819 -91 2034 -91 
Q 1250 -91 836 529 
Q 422 1150 422 2328 
Q 422 3509 836 4129 
Q 1250 4750 2034 4750 
z
" id="DejaVuSans-30" transform="scale(0.015625)"/>
       </defs>
       <use xlink:href="#DejaVuSans-30"/>
      </g>
     </g>
    </g>
    <g id="ytick_2">
     <g id="line2d_3">
      <g>
       <use style="stroke:#000000;stroke-width:0.8;" x="49.564375" xlink:href="#ma9f0ee0ec3" y="266.13"/>
      </g>
     </g>
     <g id="text_3">
      <!-- 10 -->
      <g transform="translate(24.749375 271.448906)scale(0.14 -0.14)">
       <defs>
        <path d="M 794 531 
L 1825 531 
L 1825 4091 
L 703 3866 
L 703 4441 
L 1819 4666 
L 2450 4666 
L 2450 531 
L 3481 531 
L 3481 0 
L 794 0 
L 794 531 
z
" id="DejaVuSans-31" transform="scale(0.015625)"/>
       </defs>
       <use xlink:href="#DejaVuSans-31"/>
       <use x="63.623047" xlink:href="#DejaVuSans-30"/>
      </g>
     </g>
    </g>
    <g id="ytick_3">
     <g id="line2d_4">
      <g>
       <use style="stroke:#000000;stroke-width:0.8;" x="49.564375" xlink:href="#ma9f0ee0ec3" y="205.1775"/>
      </g>
     </g>
     <g id="text_4">
      <!-- 20 -->
      <g transform="translate(24.749375 210.496406)scale(0.14 -0.14)">
       <defs>
        <path d="M 1228 531 
L 3431 531 
L 3431 0 
L 469 0 
L 469 531 
Q 828 903 1448 1529 
Q 2069 2156 2228 2338 
Q 2531 2678 2651 2914 
Q 2772 3150 2772 3378 
Q 2772 3750 2511 3984 
Q 2250 4219 1831 4219 
Q 1534 4219 1204 4116 
Q 875 4013 500 3803 
L 500 4441 
Q 881 4594 1212 4672 
Q 1544 4750 1819 4750 
Q 2544 4750 2975 4387 
Q 3406 4025 3406 3419 
Q 3406 3131 3298 2873 
Q 3191 2616 2906 2266 
Q 2828 2175 2409 1742 
Q 1991 1309 1228 531 
z
" id="DejaVuSans-32" transform="scale(0.015625)"/>
       </defs>
       <use xlink:href="#DejaVuSans-32"/>
       <use x="63.623047" xlink:href="#DejaVuSans-30"/>
      </g>
     </g>
    </g>
    <g id="ytick_4">
     <g id="line2d_5">
      <g>
       <use style="stroke:#000000;stroke-width:0.8;" x="49.564375" xlink:href="#ma9f0ee0ec3" y="144.225"/>
      </g>
     </g>
     <g id="text_5">
      <!-- 30 -->
      <g transform="translate(24.749375 149.543906)scale(0.14 -0.14)">
       <defs>
        <path d="M 2597 2516 
Q 3050 2419 3304 2112 
Q 3559 1806 3559 1356 
Q 3559 666 3084 287 
Q 2609 -91 1734 -91 
Q 1441 -91 1130 -33 
Q 819 25 488 141 
L 488 750 
Q 750 597 1062 519 
Q 1375 441 1716 441 
Q 2309 441 2620 675 
Q 2931 909 2931 1356 
Q 2931 1769 2642 2001 
Q 2353 2234 1838 2234 
L 1294 2234 
L 1294 2753 
L 1863 2753 
Q 2328 2753 2575 2939 
Q 2822 3125 2822 3475 
Q 2822 3834 2567 4026 
Q 2313 4219 1838 4219 
Q 1578 4219 1281 4162 
Q 984 4106 628 3988 
L 628 4550 
Q 988 4650 1302 4700 
Q 1616 4750 1894 4750 
Q 2613 4750 3031 4423 
Q 3450 4097 3450 3541 
Q 3450 3153 3228 2886 
Q 3006 2619 2597 2516 
z
" id="DejaVuSans-33" transform="scale(0.015625)"/>
       </defs>
       <use xlink:href="#DejaVuSans-33"/>
       <use x="63.623047" xlink:href="#DejaVuSans-30"/>
      </g>
     </g>
    </g>
    <g id="ytick_5">
     <g id="line2d_6">
      <g>
       <use style="stroke:#000000;stroke-width:0.8;" x="49.564375" xlink:href="#ma9f0ee0ec3" y="83.2725"/>
      </g>
     </g>
     <g id="text_6">
      <!-- 40 -->
      <g transform="translate(24.749375 88.591406)scale(0.14 -0.14)">
       <defs>
        <path d="M 2419 4116 
L 825 1625 
L 2419 1625 
L 2419 4116 
z
M 2253 4666 
L 3047 4666 
L 3047 1625 
L 3713 1625 
L 3713 1100 
L 3047 1100 
L 3047 0 
L 2419 0 
L 2419 1100 
L 313 1100 
L 313 1709 
L 2253 4666 
z
" id="DejaVuSans-34" transform="scale(0.015625)"/>
       </defs>
       <use xlink:href="#DejaVuSans-34"/>
       <use x="63.623047" xlink:href="#DejaVuSans-30"/>
      </g>
     </g>
    </g>
    <g id="ytick_6">
     <g id="line2d_7">
      <g>
       <use style="stroke:#000000;stroke-width:0.8;" x="49.564375" xlink:href="#ma9f0ee0ec3" y="22.32"/>
      </g>
     </g>
     <g id="text_7">
      <!-- 50 -->
      <g transform="translate(24.749375 27.638906)scale(0.14 -0.14)">
       <defs>
        <path d="M 691 4666 
L 3169 4666 
L 3169 4134 
L 1269 4134 
L 1269 2991 
Q 1406 3038 1543 3061 
Q 1681 3084 1819 3084 
Q 2600 3084 3056 2656 
Q 3513 2228 3513 1497 
Q 3513 744 3044 326 
Q 2575 -91 1722 -91 
Q 1428 -91 1123 -41 
Q 819 9 494 109 
L 494 744 
Q 775 591 1075 516 
Q 1375 441 1709 441 
Q 2250 441 2565 725 
Q 2881 1009 2881 1497 
Q 2881 1984 2565 2268 
Q 2250 2553 1709 2553 
Q 1456 2553 1204 2497 
Q 953 2441 691 2322 
L 691 4666 
z
" id="DejaVuSans-35" transform="scale(0.015625)"/>
       </defs>
       <use xlink:href="#DejaVuSans-35"/>
       <use x="63.623047" xlink:href="#DejaVuSans-30"/>
      </g>
     </g>
    </g>
    <g id="text_8">
     <!-- % of binding peptides -->
     <g transform="translate(17.837812 249.967656)rotate(-90)scale(0.14 -0.14)">
      <defs>
       <path d="M 4653 2053 
Q 4381 2053 4226 1822 
Q 4072 1591 4072 1178 
Q 4072 772 4226 539 
Q 4381 306 4653 306 
Q 4919 306 5073 539 
Q 5228 772 5228 1178 
Q 5228 1588 5073 1820 
Q 4919 2053 4653 2053 
z
M 4653 2450 
Q 5147 2450 5437 2106 
Q 5728 1763 5728 1178 
Q 5728 594 5436 251 
Q 5144 -91 4653 -91 
Q 4153 -91 3862 251 
Q 3572 594 3572 1178 
Q 3572 1766 3864 2108 
Q 4156 2450 4653 2450 
z
M 1428 4353 
Q 1159 4353 1004 4120 
Q 850 3888 850 3481 
Q 850 3069 1003 2837 
Q 1156 2606 1428 2606 
Q 1700 2606 1854 2837 
Q 2009 3069 2009 3481 
Q 2009 3884 1853 4118 
Q 1697 4353 1428 4353 
z
M 4250 4750 
L 4750 4750 
L 1831 -91 
L 1331 -91 
L 4250 4750 
z
M 1428 4750 
Q 1922 4750 2215 4408 
Q 2509 4066 2509 3481 
Q 2509 2891 2217 2550 
Q 1925 2209 1428 2209 
Q 931 2209 642 2551 
Q 353 2894 353 3481 
Q 353 4063 643 4406 
Q 934 4750 1428 4750 
z
" id="DejaVuSans-25" transform="scale(0.015625)"/>
       <path id="DejaVuSans-20" transform="scale(0.015625)"/>
       <path d="M 1959 3097 
Q 1497 3097 1228 2736 
Q 959 2375 959 1747 
Q 959 1119 1226 758 
Q 1494 397 1959 397 
Q 2419 397 2687 759 
Q 2956 1122 2956 1747 
Q 2956 2369 2687 2733 
Q 2419 3097 1959 3097 
z
M 1959 3584 
Q 2709 3584 3137 3096 
Q 3566 2609 3566 1747 
Q 3566 888 3137 398 
Q 2709 -91 1959 -91 
Q 1206 -91 779 398 
Q 353 888 353 1747 
Q 353 2609 779 3096 
Q 1206 3584 1959 3584 
z
" id="DejaVuSans-6f" transform="scale(0.015625)"/>
       <path d="M 2375 4863 
L 2375 4384 
L 1825 4384 
Q 1516 4384 1395 4259 
Q 1275 4134 1275 3809 
L 1275 3500 
L 2222 3500 
L 2222 3053 
L 1275 3053 
L 1275 0 
L 697 0 
L 697 3053 
L 147 3053 
L 147 3500 
L 697 3500 
L 697 3744 
Q 697 4328 969 4595 
Q 1241 4863 1831 4863 
L 2375 4863 
z
" id="DejaVuSans-66" transform="scale(0.015625)"/>
       <path d="M 3116 1747 
Q 3116 2381 2855 2742 
Q 2594 3103 2138 3103 
Q 1681 3103 1420 2742 
Q 1159 2381 1159 1747 
Q 1159 1113 1420 752 
Q 1681 391 2138 391 
Q 2594 391 2855 752 
Q 3116 1113 3116 1747 
z
M 1159 2969 
Q 1341 3281 1617 3432 
Q 1894 3584 2278 3584 
Q 2916 3584 3314 3078 
Q 3713 2572 3713 1747 
Q 3713 922 3314 415 
Q 2916 -91 2278 -91 
Q 1894 -91 1617 61 
Q 1341 213 1159 525 
L 1159 0 
L 581 0 
L 581 4863 
L 1159 4863 
L 1159 2969 
z
" id="DejaVuSans-62" transform="scale(0.015625)"/>
       <path d="M 603 3500 
L 1178 3500 
L 1178 0 
L 603 0 
L 603 3500 
z
M 603 4863 
L 1178 4863 
L 1178 4134 
L 603 4134 
L 603 4863 
z
" id="DejaVuSans-69" transform="scale(0.015625)"/>
       <path d="M 2906 2969 
L 2906 4863 
L 3481 4863 
L 3481 0 
L 2906 0 
L 2906 525 
Q 2725 213 2448 61 
Q 2172 -91 1784 -91 
Q 1150 -91 751 415 
Q 353 922 353 1747 
Q 353 2572 751 3078 
Q 1150 3584 1784 3584 
Q 2172 3584 2448 3432 
Q 2725 3281 2906 2969 
z
M 947 1747 
Q 947 1113 1208 752 
Q 1469 391 1925 391 
Q 2381 391 2643 752 
Q 2906 1113 2906 1747 
Q 2906 2381 2643 2742 
Q 2381 3103 1925 3103 
Q 1469 3103 1208 2742 
Q 947 2381 947 1747 
z
" id="DejaVuSans-64" transform="scale(0.015625)"/>
       <path d="M 2906 1791 
Q 2906 2416 2648 2759 
Q 2391 3103 1925 3103 
Q 1463 3103 1205 2759 
Q 947 2416 947 1791 
Q 947 1169 1205 825 
Q 1463 481 1925 481 
Q 2391 481 2648 825 
Q 2906 1169 2906 1791 
z
M 3481 434 
Q 3481 -459 3084 -895 
Q 2688 -1331 1869 -1331 
Q 1566 -1331 1297 -1286 
Q 1028 -1241 775 -1147 
L 775 -588 
Q 1028 -725 1275 -790 
Q 1522 -856 1778 -856 
Q 2344 -856 2625 -561 
Q 2906 -266 2906 331 
L 2906 616 
Q 2728 306 2450 153 
Q 2172 0 1784 0 
Q 1141 0 747 490 
Q 353 981 353 1791 
Q 353 2603 747 3093 
Q 1141 3584 1784 3584 
Q 2172 3584 2450 3431 
Q 2728 3278 2906 2969 
L 2906 3500 
L 3481 3500 
L 3481 434 
z
" id="DejaVuSans-67" transform="scale(0.015625)"/>
       <path d="M 1159 525 
L 1159 -1331 
L 581 -1331 
L 581 3500 
L 1159 3500 
L 1159 2969 
Q 1341 3281 1617 3432 
Q 1894 3584 2278 3584 
Q 2916 3584 3314 3078 
Q 3713 2572 3713 1747 
Q 3713 922 3314 415 
Q 2916 -91 2278 -91 
Q 1894 -91 1617 61 
Q 1341 213 1159 525 
z
M 3116 1747 
Q 3116 2381 2855 2742 
Q 2594 3103 2138 3103 
Q 1681 3103 1420 2742 
Q 1159 2381 1159 1747 
Q 1159 1113 1420 752 
Q 1681 391 2138 391 
Q 2594 391 2855 752 
Q 3116 1113 3116 1747 
z
" id="DejaVuSans-70" transform="scale(0.015625)"/>
       <path d="M 1172 4494 
L 1172 3500 
L 2356 3500 
L 2356 3053 
L 1172 3053 
L 1172 1153 
Q 1172 725 1289 603 
Q 1406 481 1766 481 
L 2356 481 
L 2356 0 
L 1766 0 
Q 1100 0 847 248 
Q 594 497 594 1153 
L 594 3053 
L 172 3053 
L 172 3500 
L 594 3500 
L 594 4494 
L 1172 4494 
z
" id="DejaVuSans-74" transform="scale(0.015625)"/>
       <path d="M 2834 3397 
L 2834 2853 
Q 2591 2978 2328 3040 
Q 2066 3103 1784 3103 
Q 1356 3103 1142 2972 
Q 928 2841 928 2578 
Q 928 2378 1081 2264 
Q 1234 2150 1697 2047 
L 1894 2003 
Q 2506 1872 2764 1633 
Q 3022 1394 3022 966 
Q 3022 478 2636 193 
Q 2250 -91 1575 -91 
Q 1294 -91 989 -36 
Q 684 19 347 128 
L 347 722 
Q 666 556 975 473 
Q 1284 391 1588 391 
Q 1994 391 2212 530 
Q 2431 669 2431 922 
Q 2431 1156 2273 1281 
Q 2116 1406 1581 1522 
L 1381 1569 
Q 847 1681 609 1914 
Q 372 2147 372 2553 
Q 372 3047 722 3315 
Q 1072 3584 1716 3584 
Q 2034 3584 2315 3537 
Q 2597 3491 2834 3397 
z
" id="DejaVuSans-73" transform="scale(0.015625)"/>
      </defs>
      <use xlink:href="#DejaVuSans-25"/>
      <use x="95.019531" xlink:href="#DejaVuSans-20"/>
      <use x="126.806641" xlink:href="#DejaVuSans-6f"/>
      <use x="187.988281" xlink:href="#DejaVuSans-66"/>
      <use x="223.193359" xlink:href="#DejaVuSans-20"/>
      <use x="254.980469" xlink:href="#DejaVuSans-62"/>
      <use x="318.457031" xlink:href="#DejaVuSans-69"/>
      <use x="346.240234" xlink:href="#DejaVuSans-6e"/>
      <use x="409.619141" xlink:href="#DejaVuSans-64"/>
      <use x="473.095703" xlink:href="#DejaVuSans-69"/>
      <use x="500.878906" xlink:href="#DejaVuSans-6e"/>
      <use x="564.257812" xlink:href="#DejaVuSans-67"/>
      <use x="627.734375" xlink:href="#DejaVuSans-20"/>
      <use x="659.521484" xlink:href="#DejaVuSans-70"/>
      <use x="722.998047" xlink:href="#DejaVuSans-65"/>
      <use x="784.521484" xlink:href="#DejaVuSans-70"/>
      <use x="847.998047" xlink:href="#DejaVuSans-74"/>
      <use x="887.207031" xlink:href="#DejaVuSans-69"/>
      <use x="914.990234" xlink:href="#DejaVuSans-64"/>
      <use x="978.466797" xlink:href="#DejaVuSans-65"/>
      <use x="1039.990234" xlink:href="#DejaVuSans-73"/>
     </g>
    </g>
   </g>
   <g id="patch_3">
    <path d="M 49.564375 339.84 
L 49.564375 7.2 
" style="fill:none;stroke:#000000;stroke-linecap:square;stroke-linejoin:miter;stroke-width:0.8;"/>
   </g>
   <g id="patch_4">
    <path d="M 49.564375 339.84 
L 384.364375 339.84 
" style="fill:none;stroke:#000000;stroke-linecap:square;stroke-linejoin:miter;stroke-width:0.8;"/>
   </g>
   <g id="PathCollection_1">
    <defs>
     <path d="M 0 2.5 
C 0.663008 2.5 1.29895 2.236584 1.767767 1.767767 
C 2.236584 1.29895 2.5 0.663008 2.5 -0 
C 2.5 -0.663008 2.236584 -1.29895 1.767767 -1.767767 
C 1.29895 -2.236584 0.663008 -2.5 0 -2.5 
C -0.663008 -2.5 -1.29895 -2.236584 -1.767767 -1.767767 
C -2.236584 -1.29895 -2.5 -0.663008 -2.5 0 
C -2.5 0.663008 -2.236584 1.29895 -1.767767 1.767767 
C -1.29895 2.236584 -0.663008 2.5 0 2.5 
z
" id="C0_0_3ade2cff2f"/>
    </defs>
    <g clip-path="url(#pc03beb8548)">
     <use style="fill:#56b3e9;" x="216.964375" xlink:href="#C0_0_3ade2cff2f" y="324.72"/>
    </g>
    <g clip-path="url(#pc03beb8548)">
     <use style="fill:#56b3e9;" x="211.729809" xlink:href="#C0_0_3ade2cff2f" y="324.336892"/>
    </g>
    <g clip-path="url(#pc03beb8548)">
     <use style="fill:#56b3e9;" x="220.620029" xlink:href="#C0_0_3ade2cff2f" y="321.131319"/>
    </g>
    <g clip-path="url(#pc03beb8548)">
     <use style="fill:#56b3e9;" x="215.707739" xlink:href="#C0_0_3ade2cff2f" y="319.366994"/>
    </g>
    <g clip-path="url(#pc03beb8548)">
     <use style="fill:#56b3e9;" x="210.794761" xlink:href="#C0_0_3ade2cff2f" y="317.604407"/>
    </g>
    <g clip-path="url(#pc03beb8548)">
     <use style="fill:#56b3e9;" x="224.138326" xlink:href="#C0_0_3ade2cff2f" y="317.420198"/>
    </g>
    <g clip-path="url(#pc03beb8548)">
     <use style="fill:#56b3e9;" x="205.562491" xlink:href="#C0_0_3ade2cff2f" y="317.193838"/>
    </g>
    <g clip-path="url(#pc03beb8548)">
     <use style="fill:#56b3e9;" x="218.255584" xlink:href="#C0_0_3ade2cff2f" y="314.995266"/>
    </g>
    <g clip-path="url(#pc03beb8548)">
     <use style="fill:#56b3e9;" x="228.486951" xlink:href="#C0_0_3ade2cff2f" y="314.618844"/>
    </g>
    <g clip-path="url(#pc03beb8548)">
     <use style="fill:#56b3e9;" x="201.098102" xlink:href="#C0_0_3ade2cff2f" y="314.562829"/>
    </g>
    <g clip-path="url(#pc03beb8548)">
     <use style="fill:#56b3e9;" x="233.735897" xlink:href="#C0_0_3ade2cff2f" y="314.518675"/>
    </g>
    <g clip-path="url(#pc03beb8548)">
     <use style="fill:#56b3e9;" x="195.853738" xlink:href="#C0_0_3ade2cff2f" y="314.331212"/>
    </g>
    <g clip-path="url(#pc03beb8548)">
     <use style="fill:#56b3e9;" x="238.920364" xlink:href="#C0_0_3ade2cff2f" y="313.731126"/>
    </g>
    <g clip-path="url(#pc03beb8548)">
     <use style="fill:#56b3e9;" x="190.644701" xlink:href="#C0_0_3ade2cff2f" y="313.707838"/>
    </g>
    <g clip-path="url(#pc03beb8548)">
     <use style="fill:#56b3e9;" x="244.170289" xlink:href="#C0_0_3ade2cff2f" y="313.704384"/>
    </g>
    <g clip-path="url(#pc03beb8548)">
     <use style="fill:#56b3e9;" x="185.39471" xlink:href="#C0_0_3ade2cff2f" y="313.698285"/>
    </g>
    <g clip-path="url(#pc03beb8548)">
     <use style="fill:#56b3e9;" x="249.417956" xlink:href="#C0_0_3ade2cff2f" y="313.555365"/>
    </g>
    <g clip-path="url(#pc03beb8548)">
     <use style="fill:#56b3e9;" x="180.147525" xlink:href="#C0_0_3ade2cff2f" y="313.534591"/>
    </g>
    <g clip-path="url(#pc03beb8548)">
     <use style="fill:#56b3e9;" x="254.667863" xlink:href="#C0_0_3ade2cff2f" y="313.525594"/>
    </g>
    <g clip-path="url(#pc03beb8548)">
     <use style="fill:#56b3e9;" x="213.359338" xlink:href="#C0_0_3ade2cff2f" y="313.241562"/>
    </g>
    <g clip-path="url(#pc03beb8548)">
     <use style="fill:#56b3e9;" x="174.909614" xlink:href="#C0_0_3ade2cff2f" y="313.195473"/>
    </g>
    <g clip-path="url(#pc03beb8548)">
     <use style="fill:#56b3e9;" x="259.898616" xlink:href="#C0_0_3ade2cff2f" y="313.097839"/>
    </g>
    <g clip-path="url(#pc03beb8548)">
     <use style="fill:#56b3e9;" x="169.661063" xlink:href="#C0_0_3ade2cff2f" y="313.078006"/>
    </g>
    <g clip-path="url(#pc03beb8548)">
     <use style="fill:#56b3e9;" x="265.148174" xlink:href="#C0_0_3ade2cff2f" y="313.033019"/>
    </g>
    <g clip-path="url(#pc03beb8548)">
     <use style="fill:#56b3e9;" x="208.222068" xlink:href="#C0_0_3ade2cff2f" y="312.882891"/>
    </g>
    <g clip-path="url(#pc03beb8548)">
     <use style="fill:#56b3e9;" x="164.418926" xlink:href="#C0_0_3ade2cff2f" y="312.804451"/>
    </g>
    <g clip-path="url(#pc03beb8548)">
     <use style="fill:#56b3e9;" x="270.388323" xlink:href="#C0_0_3ade2cff2f" y="312.72686"/>
    </g>
    <g clip-path="url(#pc03beb8548)">
     <use style="fill:#56b3e9;" x="159.170443" xlink:href="#C0_0_3ade2cff2f" y="312.684272"/>
    </g>
    <g clip-path="url(#pc03beb8548)">
     <use style="fill:#56b3e9;" x="275.637734" xlink:href="#C0_0_3ade2cff2f" y="312.651935"/>
    </g>
    <g clip-path="url(#pc03beb8548)">
     <use style="fill:#56b3e9;" x="222.802864" xlink:href="#C0_0_3ade2cff2f" y="312.496332"/>
    </g>
    <g clip-path="url(#pc03beb8548)">
     <use style="fill:#56b3e9;" x="153.927572" xlink:href="#C0_0_3ade2cff2f" y="312.423777"/>
    </g>
    <g clip-path="url(#pc03beb8548)">
     <use style="fill:#56b3e9;" x="280.880806" xlink:href="#C0_0_3ade2cff2f" y="312.395151"/>
    </g>
    <g clip-path="url(#pc03beb8548)">
     <use style="fill:#56b3e9;" x="148.691152" xlink:href="#C0_0_3ade2cff2f" y="312.064386"/>
    </g>
    <g clip-path="url(#pc03beb8548)">
     <use style="fill:#56b3e9;" x="286.115126" xlink:href="#C0_0_3ade2cff2f" y="312.00901"/>
    </g>
    <g clip-path="url(#pc03beb8548)">
     <use style="fill:#56b3e9;" x="143.442018" xlink:href="#C0_0_3ade2cff2f" y="311.973553"/>
    </g>
    <g clip-path="url(#pc03beb8548)">
     <use style="fill:#56b3e9;" x="291.364738" xlink:href="#C0_0_3ade2cff2f" y="311.948199"/>
    </g>
    <g clip-path="url(#pc03beb8548)">
     <use style="fill:#56b3e9;" x="138.20567" xlink:href="#C0_0_3ade2cff2f" y="311.613209"/>
    </g>
    <g clip-path="url(#pc03beb8548)">
     <use style="fill:#56b3e9;" x="296.591435" xlink:href="#C0_0_3ade2cff2f" y="311.477624"/>
    </g>
    <g clip-path="url(#pc03beb8548)">
     <use style="fill:#56b3e9;" x="132.979041" xlink:href="#C0_0_3ade2cff2f" y="311.141955"/>
    </g>
    <g clip-path="url(#pc03beb8548)">
     <use style="fill:#56b3e9;" x="301.825472" xlink:href="#C0_0_3ade2cff2f" y="311.088009"/>
    </g>
    <g clip-path="url(#pc03beb8548)">
     <use style="fill:#56b3e9;" x="127.732706" xlink:href="#C0_0_3ade2cff2f" y="310.955162"/>
    </g>
    <g clip-path="url(#pc03beb8548)">
     <use style="fill:#56b3e9;" x="307.072868" xlink:href="#C0_0_3ade2cff2f" y="310.930566"/>
    </g>
    <g clip-path="url(#pc03beb8548)">
     <use style="fill:#56b3e9;" x="122.483372" xlink:href="#C0_0_3ade2cff2f" y="310.875514"/>
    </g>
    <g clip-path="url(#pc03beb8548)">
     <use style="fill:#56b3e9;" x="312.318029" xlink:href="#C0_0_3ade2cff2f" y="310.715944"/>
    </g>
    <g clip-path="url(#pc03beb8548)">
     <use style="fill:#56b3e9;" x="117.238874" xlink:href="#C0_0_3ade2cff2f" y="310.646657"/>
    </g>
    <g clip-path="url(#pc03beb8548)">
     <use style="fill:#56b3e9;" x="317.566825" xlink:href="#C0_0_3ade2cff2f" y="310.608851"/>
    </g>
    <g clip-path="url(#pc03beb8548)">
     <use style="fill:#56b3e9;" x="111.996449" xlink:href="#C0_0_3ade2cff2f" y="310.378156"/>
    </g>
    <g clip-path="url(#pc03beb8548)">
     <use style="fill:#56b3e9;" x="322.809892" xlink:href="#C0_0_3ade2cff2f" y="310.351981"/>
    </g>
    <g clip-path="url(#pc03beb8548)">
     <use style="fill:#56b3e9;" x="203.780158" xlink:href="#C0_0_3ade2cff2f" y="310.217596"/>
    </g>
    <g clip-path="url(#pc03beb8548)">
     <use style="fill:#56b3e9;" x="217.382458" xlink:href="#C0_0_3ade2cff2f" y="310.029199"/>
    </g>
    <g clip-path="url(#pc03beb8548)">
     <use style="fill:#56b3e9;" x="230.343576" xlink:href="#C0_0_3ade2cff2f" y="309.941942"/>
    </g>
    <g clip-path="url(#pc03beb8548)">
     <use style="fill:#56b3e9;" x="198.541615" xlink:href="#C0_0_3ade2cff2f" y="309.887443"/>
    </g>
    <g clip-path="url(#pc03beb8548)">
     <use style="fill:#56b3e9;" x="235.592717" xlink:href="#C0_0_3ade2cff2f" y="309.85153"/>
    </g>
    <g clip-path="url(#pc03beb8548)">
     <use style="fill:#56b3e9;" x="106.79538" xlink:href="#C0_0_3ade2cff2f" y="309.697099"/>
    </g>
    <g clip-path="url(#pc03beb8548)">
     <use style="fill:#56b3e9;" x="328.000095" xlink:href="#C0_0_3ade2cff2f" y="309.599481"/>
    </g>
    <g clip-path="url(#pc03beb8548)">
     <use style="fill:#56b3e9;" x="101.546659" xlink:href="#C0_0_3ade2cff2f" y="309.586743"/>
    </g>
    <g clip-path="url(#pc03beb8548)">
     <use style="fill:#56b3e9;" x="193.331991" xlink:href="#C0_0_3ade2cff2f" y="309.268535"/>
    </g>
    <g clip-path="url(#pc03beb8548)">
     <use style="fill:#56b3e9;" x="241.248382" xlink:href="#C0_0_3ade2cff2f" y="309.249586"/>
    </g>
    <g clip-path="url(#pc03beb8548)">
     <use style="fill:#56b3e9;" x="188.08832" xlink:href="#C0_0_3ade2cff2f" y="309.023081"/>
    </g>
    <g clip-path="url(#pc03beb8548)">
     <use style="fill:#56b3e9;" x="246.488568" xlink:href="#C0_0_3ade2cff2f" y="308.944007"/>
    </g>
    <g clip-path="url(#pc03beb8548)">
     <use style="fill:#56b3e9;" x="182.840519" xlink:href="#C0_0_3ade2cff2f" y="308.878374"/>
    </g>
    <g clip-path="url(#pc03beb8548)">
     <use style="fill:#56b3e9;" x="211.694157" xlink:href="#C0_0_3ade2cff2f" y="308.49973"/>
    </g>
    <g clip-path="url(#pc03beb8548)">
     <use style="fill:#56b3e9;" x="225.621727" xlink:href="#C0_0_3ade2cff2f" y="308.278187"/>
    </g>
    <g clip-path="url(#pc03beb8548)">
     <use style="fill:#56b3e9;" x="251.690416" xlink:href="#C0_0_3ade2cff2f" y="308.268372"/>
    </g>
    <g clip-path="url(#pc03beb8548)">
     <use style="fill:#56b3e9;" x="177.816473" xlink:href="#C0_0_3ade2cff2f" y="307.427295"/>
    </g>
    <g clip-path="url(#pc03beb8548)">
     <use style="fill:#56b3e9;" x="256.787095" xlink:href="#C0_0_3ade2cff2f" y="307.068838"/>
    </g>
    <g clip-path="url(#pc03beb8548)">
     <use style="fill:#56b3e9;" x="172.588223" xlink:href="#C0_0_3ade2cff2f" y="306.972636"/>
    </g>
    <g clip-path="url(#pc03beb8548)">
     <use style="fill:#56b3e9;" x="262.027393" xlink:href="#C0_0_3ade2cff2f" y="306.765"/>
    </g>
    <g clip-path="url(#pc03beb8548)">
     <use style="fill:#56b3e9;" x="167.371073" xlink:href="#C0_0_3ade2cff2f" y="306.414182"/>
    </g>
    <g clip-path="url(#pc03beb8548)">
     <use style="fill:#56b3e9;" x="220.794111" xlink:href="#C0_0_3ade2cff2f" y="306.313275"/>
    </g>
    <g clip-path="url(#pc03beb8548)">
     <use style="fill:#56b3e9;" x="207.076368" xlink:href="#C0_0_3ade2cff2f" y="306.120964"/>
    </g>
    <g clip-path="url(#pc03beb8548)">
     <use style="fill:#56b3e9;" x="201.883117" xlink:href="#C0_0_3ade2cff2f" y="305.387788"/>
    </g>
    <g clip-path="url(#pc03beb8548)">
     <use style="fill:#56b3e9;" x="215.872281" xlink:href="#C0_0_3ade2cff2f" y="304.573232"/>
    </g>
    <g clip-path="url(#pc03beb8548)">
     <use style="fill:#56b3e9;" x="228.288597" xlink:href="#C0_0_3ade2cff2f" y="303.971328"/>
    </g>
    <g clip-path="url(#pc03beb8548)">
     <use style="fill:#56b3e9;" x="210.97514" xlink:href="#C0_0_3ade2cff2f" y="302.772418"/>
    </g>
    <g clip-path="url(#pc03beb8548)">
     <use style="fill:#56b3e9;" x="219.21489" xlink:href="#C0_0_3ade2cff2f" y="300.717622"/>
    </g>
    <g clip-path="url(#pc03beb8548)">
     <use style="fill:#56b3e9;" x="224.460148" xlink:href="#C0_0_3ade2cff2f" y="300.505165"/>
    </g>
    <g clip-path="url(#pc03beb8548)">
     <use style="fill:#56b3e9;" x="206.677251" xlink:href="#C0_0_3ade2cff2f" y="299.900922"/>
    </g>
    <g clip-path="url(#pc03beb8548)">
     <use style="fill:#56b3e9;" x="230.359648" xlink:href="#C0_0_3ade2cff2f" y="299.376818"/>
    </g>
    <g clip-path="url(#pc03beb8548)">
     <use style="fill:#56b3e9;" x="201.481327" xlink:href="#C0_0_3ade2cff2f" y="299.185134"/>
    </g>
    <g clip-path="url(#pc03beb8548)">
     <use style="fill:#56b3e9;" x="214.59026" xlink:href="#C0_0_3ade2cff2f" y="298.350941"/>
    </g>
    <g clip-path="url(#pc03beb8548)">
     <use style="fill:#56b3e9;" x="235.082667" xlink:href="#C0_0_3ade2cff2f" y="297.193477"/>
    </g>
    <g clip-path="url(#pc03beb8548)">
     <use style="fill:#56b3e9;" x="221.424743" xlink:href="#C0_0_3ade2cff2f" y="296.182143"/>
    </g>
    <g clip-path="url(#pc03beb8548)">
     <use style="fill:#56b3e9;" x="216.964375" xlink:href="#C0_0_3ade2cff2f" y="293.22"/>
    </g>
    <g clip-path="url(#pc03beb8548)">
     <use style="fill:#56b3e9;" x="211.873471" xlink:href="#C0_0_3ade2cff2f" y="291.998426"/>
    </g>
    <g clip-path="url(#pc03beb8548)">
     <use style="fill:#56b3e9;" x="220.850578" xlink:href="#C0_0_3ade2cff2f" y="289.858227"/>
    </g>
    <g clip-path="url(#pc03beb8548)">
     <use style="fill:#56b3e9;" x="208.146038" xlink:href="#C0_0_3ade2cff2f" y="288.477353"/>
    </g>
    <g clip-path="url(#pc03beb8548)">
     <use style="fill:#56b3e9;" x="216.002876" xlink:href="#C0_0_3ade2cff2f" y="287.938693"/>
    </g>
    <g clip-path="url(#pc03beb8548)">
     <use style="fill:#56b3e9;" x="217.820794" xlink:href="#C0_0_3ade2cff2f" y="283.248018"/>
    </g>
    <g clip-path="url(#pc03beb8548)">
     <use style="fill:#56b3e9;" x="212.854743" xlink:href="#C0_0_3ade2cff2f" y="281.625938"/>
    </g>
    <g clip-path="url(#pc03beb8548)">
     <use style="fill:#56b3e9;" x="222.596299" xlink:href="#C0_0_3ade2cff2f" y="281.170813"/>
    </g>
    <g clip-path="url(#pc03beb8548)">
     <use style="fill:#56b3e9;" x="216.964375" xlink:href="#C0_0_3ade2cff2f" y="269.580142"/>
    </g>
    <g clip-path="url(#pc03beb8548)">
     <use style="fill:#56b3e9;" x="211.774228" xlink:href="#C0_0_3ade2cff2f" y="268.827296"/>
    </g>
    <g clip-path="url(#pc03beb8548)">
     <use style="fill:#56b3e9;" x="216.964375" xlink:href="#C0_0_3ade2cff2f" y="256.041472"/>
    </g>
    <g clip-path="url(#pc03beb8548)">
     <use style="fill:#56b3e9;" x="216.964375" xlink:href="#C0_0_3ade2cff2f" y="250.75937"/>
    </g>
    <g clip-path="url(#pc03beb8548)">
     <use style="fill:#56b3e9;" x="213.647103" xlink:href="#C0_0_3ade2cff2f" y="246.883962"/>
    </g>
    <g clip-path="url(#pc03beb8548)">
     <use style="fill:#56b3e9;" x="216.964375" xlink:href="#C0_0_3ade2cff2f" y="224.906589"/>
    </g>
    <g clip-path="url(#pc03beb8548)">
     <use style="fill:#56b3e9;" x="211.718051" xlink:href="#C0_0_3ade2cff2f" y="224.719523"/>
    </g>
    <g clip-path="url(#pc03beb8548)">
     <use style="fill:#56b3e9;" x="222.146642" xlink:href="#C0_0_3ade2cff2f" y="224.106015"/>
    </g>
    <g clip-path="url(#pc03beb8548)">
     <use style="fill:#56b3e9;" x="216.964375" xlink:href="#C0_0_3ade2cff2f" y="213.102806"/>
    </g>
    <g clip-path="url(#pc03beb8548)">
     <use style="fill:#56b3e9;" x="216.964375" xlink:href="#C0_0_3ade2cff2f" y="171.1575"/>
    </g>
    <g clip-path="url(#pc03beb8548)">
     <use style="fill:#56b3e9;" x="216.964375" xlink:href="#C0_0_3ade2cff2f" y="153.909524"/>
    </g>
    <g clip-path="url(#pc03beb8548)">
     <use style="fill:#56b3e9;" x="216.964375" xlink:href="#C0_0_3ade2cff2f" y="144.022316"/>
    </g>
    <g clip-path="url(#pc03beb8548)">
     <use style="fill:#56b3e9;" x="216.964375" xlink:href="#C0_0_3ade2cff2f" y="113.861855"/>
    </g>
    <g clip-path="url(#pc03beb8548)">
     <use style="fill:#56b3e9;" x="216.964375" xlink:href="#C0_0_3ade2cff2f" y="101.398316"/>
    </g>
    <g clip-path="url(#pc03beb8548)">
     <use style="fill:#56b3e9;" x="216.964375" xlink:href="#C0_0_3ade2cff2f" y="91.254375"/>
    </g>
    <g clip-path="url(#pc03beb8548)">
     <use style="fill:#56b3e9;" x="212.363349" xlink:href="#C0_0_3ade2cff2f" y="88.846327"/>
    </g>
    <g clip-path="url(#pc03beb8548)">
     <use style="fill:#56b3e9;" x="219.857415" xlink:href="#C0_0_3ade2cff2f" y="87.082031"/>
    </g>
    <g clip-path="url(#pc03beb8548)">
     <use style="fill:#56b3e9;" x="216.964375" xlink:href="#C0_0_3ade2cff2f" y="75.622921"/>
    </g>
    <g clip-path="url(#pc03beb8548)">
     <use style="fill:#56b3e9;" x="216.964375" xlink:href="#C0_0_3ade2cff2f" y="68.441328"/>
    </g>
    <g clip-path="url(#pc03beb8548)">
     <use style="fill:#56b3e9;" x="216.964375" xlink:href="#C0_0_3ade2cff2f" y="52.531239"/>
    </g>
    <g clip-path="url(#pc03beb8548)">
     <use style="fill:#56b3e9;" x="213.942598" xlink:href="#C0_0_3ade2cff2f" y="48.4425"/>
    </g>
    <g clip-path="url(#pc03beb8548)">
     <use style="fill:#56b3e9;" x="216.964375" xlink:href="#C0_0_3ade2cff2f" y="43.459595"/>
    </g>
    <g clip-path="url(#pc03beb8548)">
     <use style="fill:#56b3e9;" x="216.964375" xlink:href="#C0_0_3ade2cff2f" y="22.32"/>
    </g>
    <g clip-path="url(#pc03beb8548)">
     <use style="fill:#56b3e9;" x="211.714375" xlink:href="#C0_0_3ade2cff2f" y="22.32"/>
    </g>
   </g>
  </g>
 </g>
 <defs>
  <clipPath id="pc03beb8548">
   <rect height="332.64" width="334.8" x="49.564375" y="7.2"/>
  </clipPath>
 </defs>
</svg>
